<svg id="egauoZ5IiD61" xmlns="http://www.w3.org/2000/svg" xmlns:xlink="http://www.w3.org/1999/xlink" viewBox="0 0 300 300" shape-rendering="geometricPrecision" text-rendering="geometricPrecision"><polygon points="0,-30 8.816779,-12.135255 28.531695,-9.27051 14.265848,4.635255 17.633558,24.27051 0,15 -17.633558,24.27051 -14.265848,4.635255 -28.531695,-9.27051 -8.816779,-12.135255 0,-30" transform="matrix(5.061387 0 0 5.061397 150 163.717923)" fill="#ffd700" fill-opacity="0.2" stroke="#ffd700" stroke-width="3"/><path d="M0,0v300h300v-300h-150v11.876013l44.625131,90.420567l99.784819,14.499611-72.204972,70.382598l17.045283,99.381821L150,239.638878L60.749739,286.56061l17.045283-99.381821L5.471848,116.796191l99.903021-14.499611l39.867003-80.885002v-21.411578L0,0Z" fill="#fff" stroke-width="0.6"/><path d="M105.374869,102.29658L150,11.876013l-.000001-11.876014-44.625131-.000001.000001,102.296582Z" transform="translate(.000001 0.000002)" fill="#fff" stroke-width="0.6"/></svg>
